<?xml version="1.0" encoding="utf-8"?>
<svg width="240" height="44" viewBox="0 0 240 44" fill="none" xmlns="http://www.w3.org/2000/svg" xmlns:bx="https://boxy-svg.com">
  <g filter="url(#filter0_d)">
    <path d="M11.676 29.432C10.164 29.432 8.724 29.216 7.356 28.784C6.012 28.328 4.908 27.656 4.044 26.768L6.24 23.06L6.42 22.772L6.78 22.988C6.828 23.156 6.888 23.336 6.96 23.528C7.056 23.696 7.248 23.912 7.536 24.176C8.112 24.608 8.748 24.956 9.444 25.22C10.164 25.484 10.92 25.628 11.712 25.652C12.768 25.676 13.62 25.484 14.268 25.076C14.916 24.644 15.24 23.972 15.24 23.06C15.24 22.628 15.144 22.22 14.952 21.836C14.76 21.452 14.364 21.044 13.764 20.612C13.164 20.18 12.276 19.688 11.1 19.136C9.54 18.416 8.304 17.72 7.392 17.048C6.504 16.352 5.868 15.608 5.484 14.816C5.1 14 4.908 13.064 4.908 12.008C4.908 10.904 5.22 9.92 5.844 9.056C6.492 8.168 7.368 7.472 8.472 6.968C9.576 6.44 10.812 6.176 12.18 6.176C15.036 6.176 17.376 7.148 19.2 9.092L16.464 12.116L16.248 12.368L15.96 12.116C15.936 11.924 15.888 11.744 15.816 11.576C15.768 11.384 15.624 11.144 15.384 10.856C14.952 10.472 14.496 10.22 14.016 10.1C13.536 9.956 12.984 9.884 12.36 9.884C11.448 9.884 10.728 10.088 10.2 10.496C9.672 10.88 9.408 11.336 9.408 11.864C9.408 12.272 9.492 12.644 9.66 12.98C9.852 13.316 10.26 13.688 10.884 14.096C11.508 14.504 12.468 15.008 13.764 15.608C15.3 16.352 16.5 17.06 17.364 17.732C18.252 18.404 18.876 19.148 19.236 19.964C19.596 20.756 19.776 21.704 19.776 22.808C19.776 23.936 19.488 25.004 18.912 26.012C18.36 26.996 17.484 27.812 16.284 28.46C15.084 29.108 13.548 29.432 11.676 29.432ZM23.844 29V25.4H27.912V15.716H24.024V12.152H32.52V25.4H36.228V29H23.844ZM30 9.596C29.232 9.596 28.572 9.344 28.02 8.84C27.492 8.312 27.228 7.688 27.228 6.968C27.228 6.2 27.48 5.564 27.984 5.06C28.512 4.556 29.184 4.304 30 4.304C30.744 4.304 31.392 4.568 31.944 5.096C32.52 5.624 32.808 6.248 32.808 6.968C32.808 7.688 32.52 8.312 31.944 8.84C31.392 9.344 30.744 9.596 30 9.596ZM40.008 29V12.152H43.752V13.232C44.16 12.68 44.604 12.296 45.084 12.08C45.564 11.864 46.044 11.756 46.524 11.756C47.076 11.756 47.604 11.888 48.108 12.152C48.636 12.416 49.056 12.92 49.368 13.664C50.112 12.392 51.264 11.756 52.824 11.756C54.072 11.756 54.96 12.2 55.488 13.088C56.04 13.952 56.316 15.164 56.316 16.724V29H52.428V17.588C52.428 16.628 52.356 15.968 52.212 15.608C52.092 15.224 51.888 15.032 51.6 15.032C51.192 15.032 50.82 15.308 50.484 15.86C50.148 16.412 49.98 17.228 49.98 18.308V29H46.344V17.66C46.344 16.58 46.272 15.86 46.128 15.5C45.984 15.116 45.732 14.924 45.372 14.924C44.964 14.924 44.616 15.2 44.328 15.752C44.04 16.28 43.896 17.06 43.896 18.092V29H40.008ZM58.584 35.012L58.548 12.116H63.048V14.168C63.624 13.328 64.296 12.716 65.064 12.332C65.856 11.948 66.72 11.756 67.656 11.756C68.88 11.756 69.984 12.104 70.968 12.8C71.952 13.472 72.732 14.468 73.308 15.788C73.908 17.108 74.208 18.74 74.208 20.684C74.208 22.652 73.896 24.284 73.272 25.58C72.672 26.876 71.868 27.848 70.86 28.496C69.852 29.12 68.76 29.432 67.584 29.432C66.72 29.432 65.88 29.3 65.064 29.036C64.272 28.772 63.648 28.364 63.192 27.812V35.012H58.584ZM66.216 25.976C67.248 25.976 68.088 25.568 68.736 24.752C69.384 23.936 69.708 22.484 69.708 20.396C69.708 18.812 69.408 17.576 68.808 16.688C68.232 15.776 67.428 15.308 66.396 15.284C65.316 15.26 64.512 15.692 63.984 16.58C63.456 17.468 63.192 18.872 63.192 20.792C63.216 22.568 63.468 23.876 63.948 24.716C64.428 25.556 65.184 25.976 66.216 25.976ZM77.052 29V25.4H81.732V8.372H77.268V4.772H86.34V25.4H90.948V29H77.052ZM97.5 35.336C96.684 35.336 95.964 35.204 95.34 34.94C94.716 34.676 94.08 34.28 93.432 33.752L94.98 30.584L95.088 30.296L95.412 30.44C95.508 30.632 95.604 30.812 95.7 30.98C95.796 31.172 96.012 31.376 96.348 31.592C96.684 31.784 97.056 31.88 97.464 31.88C98.112 31.88 98.64 31.604 99.048 31.052C99.456 30.5 99.888 29.6 100.344 28.352L100.38 28.28L93.936 12.152H98.472L102.468 22.52L104.124 17.876C104.484 16.892 104.772 15.944 104.988 15.032C105.228 14.096 105.36 13.136 105.384 12.152H109.56C109.488 13.232 109.236 14.384 108.804 15.608C108.396 16.808 107.988 17.96 107.58 19.064L103.404 30.332C102.732 32.18 101.904 33.476 100.92 34.22C99.96 34.964 98.82 35.336 97.5 35.336Z" fill="#645CFF"/>
    <text style="fill: rgb(51, 51, 51); font-family: &quot;Merriweather Sans&quot;; font-size: 4.72621px; font-weight: 700; white-space: pre;" transform="matrix(5.95767, 0, 0, 7.193925, -596.738464, -132.333282)" x="118.783" y="22.58">Workout</text>
  </g>
  <defs>
    <filter id="filter0_d" x="0.0440063" y="4.30399" width="239.336" height="39.032" filterUnits="userSpaceOnUse" color-interpolation-filters="sRGB">
      <feFlood flood-opacity="0" result="BackgroundImageFix"/>
      <feColorMatrix in="SourceAlpha" type="matrix" values="0 0 0 0 0 0 0 0 0 0 0 0 0 0 0 0 0 0 127 0"/>
      <feOffset dy="4"/>
      <feGaussianBlur stdDeviation="2"/>
      <feColorMatrix type="matrix" values="0 0 0 0 0 0 0 0 0 0 0 0 0 0 0 0 0 0 0.25 0"/>
      <feBlend mode="normal" in2="BackgroundImageFix" result="effect1_dropShadow"/>
      <feBlend mode="normal" in="SourceGraphic" in2="effect1_dropShadow" result="shape"/>
    </filter>
    <style bx:fonts="Merriweather Sans">@import url(https://fonts.googleapis.com/css2?family=Merriweather+Sans%3Aital%2Cwght%400%2C300%3B0%2C400%3B0%2C500%3B0%2C600%3B0%2C700%3B0%2C800%3B1%2C300%3B1%2C400%3B1%2C500%3B1%2C600%3B1%2C700%3B1%2C800&amp;display=swap);</style>
  </defs>
</svg>